<mxfile host="app.diagrams.net" agent="Mozilla/5.0 (Macintosh; Intel Mac OS X 10_15_7) AppleWebKit/537.36 (KHTML, like Gecko) Chrome/128.0.0.0 Safari/537.36" version="24.7.8">
  <diagram name="设备监控" id="NtYY3qC05F_qg6AdHSDl">
    <mxGraphModel dx="954" dy="527" grid="1" gridSize="10" guides="1" tooltips="1" connect="1" arrows="1" fold="1" page="1" pageScale="1" pageWidth="827" pageHeight="1169" math="0" shadow="0">
      <root>
        <mxCell id="0" />
        <mxCell id="1" parent="0" />
        <mxCell id="3g0g-_dESB-QTeJlqkgQ-3" value="" style="edgeStyle=orthogonalEdgeStyle;rounded=0;orthogonalLoop=1;jettySize=auto;html=1;" edge="1" parent="1" source="3g0g-_dESB-QTeJlqkgQ-1" target="3g0g-_dESB-QTeJlqkgQ-2">
          <mxGeometry relative="1" as="geometry" />
        </mxCell>
        <mxCell id="3g0g-_dESB-QTeJlqkgQ-1" value="创建设备监控" style="rounded=0;whiteSpace=wrap;html=1;" vertex="1" parent="1">
          <mxGeometry x="30" y="30" width="120" height="60" as="geometry" />
        </mxCell>
        <mxCell id="3g0g-_dESB-QTeJlqkgQ-5" value="" style="edgeStyle=orthogonalEdgeStyle;rounded=0;orthogonalLoop=1;jettySize=auto;html=1;" edge="1" parent="1" source="3g0g-_dESB-QTeJlqkgQ-2" target="3g0g-_dESB-QTeJlqkgQ-4">
          <mxGeometry relative="1" as="geometry" />
        </mxCell>
        <mxCell id="3g0g-_dESB-QTeJlqkgQ-2" value="DeviceID 搜索" style="rounded=0;whiteSpace=wrap;html=1;" vertex="1" parent="1">
          <mxGeometry x="180" y="30" width="120" height="60" as="geometry" />
        </mxCell>
        <mxCell id="3g0g-_dESB-QTeJlqkgQ-7" value="" style="edgeStyle=orthogonalEdgeStyle;rounded=0;orthogonalLoop=1;jettySize=auto;html=1;" edge="1" parent="1" source="3g0g-_dESB-QTeJlqkgQ-4" target="3g0g-_dESB-QTeJlqkgQ-6">
          <mxGeometry relative="1" as="geometry" />
        </mxCell>
        <mxCell id="3g0g-_dESB-QTeJlqkgQ-4" value="选择设备分类" style="rounded=0;whiteSpace=wrap;html=1;" vertex="1" parent="1">
          <mxGeometry x="330" y="30" width="120" height="60" as="geometry" />
        </mxCell>
        <mxCell id="3g0g-_dESB-QTeJlqkgQ-6" value="完成添加" style="rounded=0;whiteSpace=wrap;html=1;" vertex="1" parent="1">
          <mxGeometry x="480" y="30" width="120" height="60" as="geometry" />
        </mxCell>
      </root>
    </mxGraphModel>
  </diagram>
</mxfile>
